<svg xmlns="http://www.w3.org/2000/svg" viewBox="0 0 247.24 195.55"><defs><style>.cls-1,.cls-4{fill:none;stroke-miterlimit:10;stroke-width:0.42px;}.cls-1{stroke:#231815;}.cls-2{font-size:3.74px;}.cls-2,.cls-3,.cls-6{fill:#231815;}.cls-2,.cls-3{font-family:MicrosoftYaHei, Microsoft YaHei;}.cls-3{font-size:11.42px;}.cls-4{stroke:#2ea7e0;}.cls-5{fill:#2ea7e0;}.cls-7{font-size:4.58px;fill:#fff;font-family:MicrosoftYaHeiLight, Microsoft YaHei;}</style></defs><g id="图层_2" data-name="图层 2"><g id="图层_3" data-name="图层 3"><circle class="cls-1" cx="67.08" cy="116.67" r="1.46"/><circle class="cls-1" cx="56.26" cy="156.53" r="1.46"/><circle class="cls-1" cx="27.94" cy="151.33" r="1.46"/><circle class="cls-1" cx="87.11" cy="101.26" r="1.46"/><circle class="cls-1" cx="127.8" cy="95.94" r="1.46"/><circle class="cls-1" cx="138.18" cy="104.17" r="1.46"/><circle class="cls-1" cx="147.11" cy="94.49" r="1.46"/><circle class="cls-1" cx="175.59" cy="126.28" r="1.46"/><circle class="cls-1" cx="125.37" cy="155.07" r="1.46"/><circle class="cls-1" cx="148.56" cy="64.17" r="1.46"/><circle class="cls-1" cx="166.49" cy="24.82" r="1.46"/><circle class="cls-1" cx="191.13" cy="62.71" r="1.46"/><circle class="cls-1" cx="71.84" cy="99.8" r="1.46"/><text class="cls-2" transform="translate(63.54 113.41)">南郑</text><text class="cls-2" transform="translate(54.81 153.62)">巴</text><text class="cls-2" transform="translate(26.49 148)">蜀</text><text class="cls-2" transform="translate(84.34 98.35)">咸阳</text><text class="cls-2" transform="translate(124.59 90.4)">洛阳</text><text class="cls-2" transform="translate(141.09 105.62)">阳翟</text><text class="cls-2" transform="translate(150.24 95.53)">大梁(开封)</text><text class="cls-2" transform="translate(151.05 65.17)">邯郸</text><text class="cls-2" transform="translate(164.02 31.89)">蓟 jì</text><text class="cls-2" transform="translate(194.66 64.17)">临淄</text><text class="cls-2" transform="translate(172.01 132.13)">寿春</text><text class="cls-2" transform="translate(119.88 151.12)">郢 yǐng</text><text class="cls-2" transform="translate(70.39 96.5)">雍</text><text class="cls-3" transform="translate(81.34 86.24)">秦</text><text class="cls-3" transform="translate(156.2 131.71)">楚</text><text class="cls-3" transform="translate(175.59 69.05)">齐</text><text class="cls-3" transform="translate(123.91 80.76)">魏</text><text class="cls-3" transform="translate(147.11 56.08)">赵</text><text class="cls-3" transform="translate(172.71 28.35)">燕</text><text class="cls-3" transform="translate(119.88 109.95)">韩</text></g><g id="图层_2-2" data-name="图层 2"><path class="cls-1" d="M247.11,13.59l-3.05,2.49h-5.27l-5,4.44L230.19,23l-3.32,3.61v1.94h-3.05l1.73,1.6-.42,1.14-2.7-.94v2.71h-4l-.52,2.8-2-2.18.94-1.35L216,32l2.6-1V29.43h2.81L221.18,28l-1-1,2.29-1.77-3,.11-.31-1.56.73-1.35-2.81,1-1-1.15,3-1.45-.83-1.15,1.24-2h1.36l1.87-1.15,1-4,1.87-3.85L224.09,7l-2.8-2.71.1-4h-1.87l-1.87,3.53-2.81-.31-2.19,3.22,1.56.84L210,8.94l-1.56,5.2-2.08,2.6-6.76,3.43h-.93v2.08l-2.81,2,.83,1.35L195.81,29v1.35l-4.06,1.15L189.36,31l-.62.83-4.47-.21-2.91.52v5.1l-1.77,1.87v5.2l2.81,1.76h1.35l2.08,1.46h1.35l2.49,2.91h2.92l1.76,4.16,3.85,2,2,1.14,2.6-.62,2.91.1.62-1.77-1-1.14,2-.73,2.29-3.12.93-1.56,4.47-1.14,3.12-.63,1.77,2.71,1.66.31.32-1,1.66,2.6,6.13-1.56.11-1.25,1.35,1.67,3.74.83L236.68,50l-1.46,2.91-.73,2.29,1.67.31-.84,2.18-3.12,1.77V56.77l-1.14.73-2.39-1.35.41,2.18-2.6.52.63,2H226l-1.35-2.6-1.14,2.6-2.6,1.46h-2.18l-1.15,3.22-1.14,2.81,1,1.66-4.09,1.66v-3h-1.22S212.34,70,212,70s-2.18.1-2.18.1l2.39,3.12h1.11L211,76l-1.14-1.66-.94,4.89h-3l-1.36,6.34-2.08,3.33,5.2,4.67,5,3.12,1.88,1.67h3.22l2.39,4.34-.52,3,3,2.39s-.21,2.29-.21,2.81,1.25,2,1.25,2l.41,3,2.5,2.7h4.47l1.25,2.29.83,5.62L229.5,128l-3.33-1.56-4.68-.62,2.6,2.18,3.85,1.56,2.5,2.19-.52,8.84-2.19,5.71-.73,1.88-4.36-1-3.33,1,4.78.93,3.75,3.54,3.95-1.35,1.56-1.15,7.59,2.5h3.64l-5.41,4.26h3l-.32,5,1.15.94-3.75,2,.11-2.28-3.22.93-.32,1.35h1.56l3,1.25-.63,2.29-2.39,2.39,2.6,2.18v2.92L237.19,178l-.51-2.39-2-1.15-2,2.6L235,178l-2.08,3.33.42,2.7-4.27.73.21,1.14,2.29,1.15.62,3.43-2.91.83-.52,1.66-1.56,1.77v.79"/><polyline class="cls-4" points="41.64 175.8 46.35 172.2 49.68 175.8 51.06 174 51.06 172.2 52.45 170.53 55.78 170.53 59.11 168.04 59.11 164.71 64.1 164.71 66.04 162.21 66.04 164.99 69.92 162.21 69.92 160.27 73.25 160.27 81.01 153.06 81.01 150.29 92.38 147.79 95.99 147.79 98.2 146.13 105.41 147.52 114.56 148.35 116.5 150.84 118.72 154.17 123.16 156.11 127.87 156.39 127.87 160.97 126.49 164.43 135.91 162.77 134.25 166.93 135.91 167.21 135.91 170.25 141.74 160.97 147.28 157.78 145.07 153.34 149.22 156.11 152 150.29 158.65 153.9 163.92 160.97 170.02 159.72 172.24 162.21 178.06 159.44 180.84 154.17 181.94 150.84 186.94 148.35 188.32 143.91 191.65 141.14 196.64 138.92 198.03 135.32 198.03 131.71 200.52 131.71 202.19 123.95 209.12 123.95 214.94 123.95 216.88 127 221.49 125.82"/><polyline class="cls-4" points="0.02 72.09 10.58 73.2 13.63 76.81 21.67 76.81 23.89 79.58 26.39 73.2 32.49 75.84 37.2 70.71 41.64 68.21 39.14 63.5 34.7 62.39 36.65 60.17 43.3 58.23 47.74 54.07 53.01 54.07 58.83 47.42 65.21 35.49 67.15 26.34 64.1 20.8 71.03 15.53 71.03 9.98 80.18 8.32 84.34 13.03 89.89 16.08 98.76 16.91 106.8 16.08 114.29 22.74 114.29 26.07 112.9 29.95 109.57 32.44 106.52 45.75 106.52 53.24 104.3 56.57 105.41 61.56 102.09 66 103.47 75.98 106.52 83.74 103.19 86.79 100.42 95.94 104.58 97.88 120.94 91.5 131.56 92.89 137.3 92.34 150.06 82.08 161.7 76.53 165.31 67.94 175.57 60.45 186.66 59.06 192.59 50.43"/><path class="cls-4" d="M39.14,89.29l5.27,4.16s20,3.32,20,4.43,5.27,4.83,5.27,4.83H79.9l4.16,2.94,8.6-6.38,6.93-1.39.83-1.94"/><polyline class="cls-4" points="53.84 126.17 60.77 121.73 61.88 118.13 66.59 118.13 69.78 122.15 75.19 120.62 83.51 119.51 87.94 126.17 91.83 126.17 94.6 122.15 100.42 123.95 105.97 122.15 115.4 122.15 119.83 126.17 120.94 131.99 125.37 135.04 125.37 137.81 128.98 139.2 128.98 143.63 132.87 145.3 130.37 146.69 132.87 149.87 132.87 151.95 132.87 153.62 137.02 151.12 142.57 153.62 145.34 149.87 151.04 152.29"/><polyline class="cls-4" points="133.97 105.65 143.13 109.53 151.04 109.53 159.49 112.86 164.75 118.13 171.41 121.45 177.79 123.95 177.79 120.9 181.94 120.9 181.94 116.46 187.49 116.46 189.71 112.58 194.15 114.8 198.86 108.97 200.8 105.65 204.41 105.65 209.95 100.93 211.44 95.94"/><polygon class="cls-5" points="125.37 168.18 127.04 170.67 125.37 173.44 124.59 174 125.37 175.8 127.73 176.91 128.84 174.28 130.23 174.97 131.56 176.91 134.81 176.91 133.97 173.58 135.36 172.54 135.91 170.25 133.97 168.73 131.56 167.07 131.56 169.84 130.25 169.56 128.29 169.42 127.6 167.9 125.37 168.18"/><path class="cls-5" d="M217.72,131.71s-2.36,3.47-2.36,4.16a22.09,22.09,0,0,0,1.18,3.61l1.18,1.24,3.77,1,2.6-1,1-3.05-1.11-1.8-2.46,2.22V136.7l-1.28-.83v-1.52l1.28-.56-2-1.38Z"/><rect class="cls-6" x="117.3" y="53.93" width="23.93" height="15.58" rx="3.17"/><text class="cls-7" transform="translate(122.39 60.57)">信陵君<tspan x="0" y="5.5">魏无忌</tspan></text><rect class="cls-6" x="141.22" y="29.89" width="23.93" height="15.58" rx="3.17"/><text class="cls-7" transform="translate(146.32 36.53)">平原君<tspan x="2.29" y="5.5">赵胜</tspan></text><rect class="cls-6" x="150.02" y="136.91" width="23.93" height="15.58" rx="3.17"/><text class="cls-7" transform="translate(155.11 143.55)">春申君<tspan x="2.29" y="5.5">黄歇</tspan></text><rect class="cls-6" x="167.62" y="72.97" width="23.93" height="15.58" rx="3.17"/><text class="cls-7" transform="translate(172.72 79.61)">孟尝君<tspan x="2.29" y="5.5">田文</tspan></text></g></g></svg>