<svg xmlns="http://www.w3.org/2000/svg" viewBox="0 0 602.51 462.3"><defs><style>.cls-1,.cls-13,.cls-2,.cls-3,.cls-7{fill:none;}.cls-1{stroke:#f8b62d;stroke-linecap:round;stroke-linejoin:round;stroke-width:16px;}.cls-13,.cls-2{stroke:#231815;}.cls-13,.cls-2,.cls-3,.cls-7{stroke-miterlimit:10;}.cls-2,.cls-3,.cls-7{stroke-width:0.42px;}.cls-3{stroke:#2ea7e0;}.cls-4{fill:#2ea7e0;}.cls-5{font-size:3.74px;}.cls-11,.cls-12,.cls-5,.cls-6,.cls-8{fill:#231815;}.cls-12,.cls-5,.cls-6{font-family:MicrosoftYaHei, Microsoft YaHei;}.cls-6{font-size:11.42px;}.cls-7{stroke:#727171;}.cls-9{font-size:4.58px;fill:#fff;}.cls-11,.cls-9{font-family:MicrosoftYaHei-Bold, Microsoft YaHei;font-weight:700;}.cls-10{fill:#172a88;}.cls-11,.cls-12{font-size:8.43px;}</style></defs><g id="图层_2" data-name="图层 2"><g id="图层_1-2" data-name="图层 1"><path class="cls-1" d="M190.58,23.36a30.68,30.68,0,0,1-.7,15C186.41,49.3,177.94,52,161.39,66.48,149,77.29,142.75,82.88,139.24,92.19c-1.15,3.06-5.78,15.33-.39,27.69,6.11,14.05,23.07,18.2,35.2,21.37A86.45,86.45,0,0,0,194.23,144"/><path class="cls-1" d="M190.58,271.09a30.68,30.68,0,0,1-.7,15c-3.47,10.91-11.94,13.65-28.49,28.09C149,325,142.75,330.61,139.24,339.92c-1.15,3.06-5.78,15.33-.39,27.69,6.11,14.05,23.07,18.2,35.2,21.37a86.45,86.45,0,0,0,20.18,2.77"/><path class="cls-1" d="M529.26,84.36A104.38,104.38,0,0,0,509.75,82c-13.74-.4-38.27-1.1-48,12.55-10.71,15,3.53,37.58,4.22,38.63"/><path class="cls-1" d="M503.55,278.45c-6.4,25.78-17.53,40.18-26.9,48.66-8.23,7.45-17.34,12.34-16.22,17.8,1.38,6.78,16.61,5.14,29.67,13.85,14,9.34,4.57,29.82,6.72,43.38"/></g><g id="图层_3" data-name="图层 3"><path class="cls-2" d="M258.1,26.3l-3.05,2.5h-5.27l-5,4.43-3.6,2.5-3.33,3.6v2h-3.05l1.73,1.59L236.13,44l-2.71-.93v2.7h-3.95L229,48.59l-2-2.18.93-1.36-.93-.31,2.6-1V42.14h2.8l-.2-1.45-1-1,2.28-1.77-3,.1-.31-1.56.72-1.35-2.8,1L227,35l3-1.46-.83-1.14,1.25-2h1.35l1.87-1.14,1-3.95,1.87-3.85-1.45-1.77L232.28,17l.1-4.06h-1.87l-1.87,3.54-2.81-.31-2.18,3.22,1.56.83-4.27,1.46-1.55,5.2-2.08,2.6-6.76,3.43h-.94V35l-2.81,2,.84,1.36-.84,3.43v1.35l-4.05,1.14-2.39-.52-.63.83-4.47-.2-2.91.52v5.09l-1.77,1.87V57l2.81,1.77h1.35l2.08,1.46h1.35l2.5,2.91h2.91l1.77,4.16,3.84,2,2,1.15,2.6-.63,2.91.11.63-1.77-1-1.15,2-.72,2.29-3.12.93-1.56,4.48-1.15,3.12-.62,1.76,2.7,1.67.32.31-1,1.66,2.59,6.14-1.55.1-1.25,1.35,1.66,3.75.83,1.87-1.35-1.46,2.91-.73,2.29,1.67.31-.83,2.19-3.12,1.76v-2.7l-1.15.73-2.39-1.35.42,2.18-2.6.52.62,2H237L235.61,71l-1.15,2.6L231.86,75h-2.18l-1.14,3.22L227.39,81l1,1.67-4.09,1.66v-3h-1.21s.21,1.36-.11,1.36-2.18.1-2.18.1l2.39,3.12h1.11L222,88.73l-1.14-1.67L219.91,92h-3l-1.35,6.34-2.08,3.33,5.2,4.68,5,3.12,1.87,1.66h3.22l2.4,4.35-.52,3,3,2.39s-.21,2.29-.21,2.81,1.25,2,1.25,2l.42,3,2.49,2.7h4.47l1.25,2.29.83,5.61-3.64,1.46-3.32-1.56-4.68-.63,2.6,2.19,3.84,1.56,2.5,2.18-.52,8.84L238.73,159l-.73,1.87-4.37-1-3.33,1,4.79.94,3.74,3.53,3.95-1.35,1.56-1.14,7.59,2.49h3.64l-5.41,4.27h3l-.31,5,1.14.93-3.74,2,.1-2.29-3.22.94-.31,1.35h1.56l3,1.25-.62,2.28-2.39,2.4,2.6,2.18v2.91l-2.81,2.18-.52-2.39-2-1.14-2,2.6,2.28.93-2.07,3.33.41,2.71-4.26.72.21,1.15,2.28,1.14.63,3.43-2.91.83-.52,1.67-1.56,1.77v.79"/><polyline class="cls-3" points="52.63 188.52 57.34 184.91 60.67 188.52 62.06 186.71 62.06 184.91 63.45 183.25 66.77 183.25 70.1 180.75 70.1 177.43 75.09 177.43 77.03 174.93 77.03 177.7 80.91 174.93 80.91 172.99 84.24 172.99 92.01 165.78 92.01 163.01 103.38 160.51 106.98 160.51 109.2 158.85 116.41 160.23 125.56 161.06 127.5 163.56 129.72 166.89 134.15 168.83 138.87 169.11 138.87 173.68 137.48 177.15 146.91 175.48 145.25 179.64 146.91 179.92 146.91 182.97 152.73 173.68 158.28 170.49 156.06 166.06 160.22 168.83 162.99 163.01 169.65 166.61 174.91 173.68 181.01 172.43 183.23 174.93 189.06 172.16 191.83 166.89 192.94 163.56 197.93 161.06 199.32 156.63 202.64 153.85 207.63 151.64 209.02 148.03 209.02 144.43 211.52 144.43 213.18 136.66 220.11 136.66 225.94 136.66 227.88 139.71 232.49 138.53"/><polyline class="cls-3" points="11.02 84.81 21.57 85.92 24.63 89.52 32.67 89.52 34.88 92.3 37.38 85.92 43.48 88.55 48.19 83.42 52.63 80.93 50.13 76.21 45.7 75.11 47.64 72.89 54.3 70.95 58.73 66.79 64 66.79 69.82 60.13 76.2 48.21 78.14 39.06 75.09 33.51 82.02 28.24 82.02 22.7 91.17 21.03 95.33 25.75 100.88 28.8 109.75 29.63 117.79 28.8 125.28 35.45 125.28 38.78 123.89 42.66 120.57 45.16 117.52 58.47 117.52 65.95 115.3 69.28 116.41 74.27 113.08 78.71 114.47 88.69 117.52 96.46 114.19 99.51 111.42 108.66 115.58 110.6 131.94 104.22 142.56 105.61 148.29 105.05 161.05 94.79 172.7 89.25 176.3 80.65 186.56 73.16 197.65 71.78 203.58 63.15"/><path class="cls-3" d="M50.14,102l5.26,4.16s20,3.32,20,4.44,5.27,4.83,5.27,4.83H90.9l4.16,2.93,8.59-6.38,6.93-1.38.84-1.94"/><polyline class="cls-3" points="64.83 138.88 71.76 134.44 72.87 130.84 77.59 130.84 80.78 134.86 86.18 133.34 94.5 132.23 98.94 138.88 102.82 138.88 105.59 134.86 111.42 136.66 116.96 134.86 126.39 134.86 130.83 138.88 131.94 144.71 136.36 147.75 136.36 150.53 139.98 151.91 139.98 156.35 143.86 158.01 141.36 159.4 143.86 162.59 143.86 164.67 143.86 166.33 148.02 163.84 153.56 166.33 156.34 162.59 162.04 165.01"/><polyline class="cls-3" points="144.97 118.36 154.12 122.24 162.04 122.24 170.48 125.57 175.75 130.84 182.4 134.17 188.78 136.66 188.78 133.61 192.94 133.61 192.94 129.18 198.49 129.18 200.7 125.29 205.14 127.51 209.85 121.69 211.79 118.36 215.4 118.36 220.94 113.65 222.43 108.66"/><polygon class="cls-4" points="136.36 180.89 138.04 183.39 136.36 186.16 135.59 186.71 136.36 188.52 138.73 189.63 139.84 186.99 141.22 187.68 142.56 189.63 145.8 189.63 144.97 186.3 146.35 185.26 146.91 182.97 144.97 181.44 142.56 179.78 142.56 182.55 141.25 182.28 139.28 182.14 138.59 180.61 136.36 180.89"/><path class="cls-4" d="M228.71,144.43s-2.36,3.46-2.36,4.16a21.93,21.93,0,0,0,1.18,3.6l1.18,1.25,3.78,1,2.6-1,1-3.05-1.11-1.8-2.46,2.21v-1.38l-1.29-.83v-1.53l1.29-.55-2-1.39Z"/><circle class="cls-2" cx="78.07" cy="129.38" r="1.46"/><circle class="cls-2" cx="67.26" cy="169.24" r="1.46"/><circle class="cls-2" cx="38.94" cy="164.05" r="1.46"/><circle class="cls-2" cx="98.11" cy="113.97" r="1.46"/><circle class="cls-2" cx="138.8" cy="108.66" r="1.46"/><circle class="cls-2" cx="149.18" cy="116.88" r="1.46"/><circle class="cls-2" cx="158.1" cy="107.2" r="1.46"/><circle class="cls-2" cx="186.58" cy="139" r="1.46"/><circle class="cls-2" cx="136.36" cy="167.79" r="1.46"/><circle class="cls-2" cx="159.56" cy="76.89" r="1.46"/><circle class="cls-2" cx="177.48" cy="37.53" r="1.46"/><circle class="cls-2" cx="202.12" cy="75.43" r="1.46"/><circle class="cls-2" cx="82.84" cy="112.52" r="1.46"/><text class="cls-5" transform="translate(74.54 126.13)">南郑</text><text class="cls-5" transform="translate(65.8 166.33)">巴</text><text class="cls-5" transform="translate(37.48 160.72)">蜀</text><text class="cls-5" transform="translate(95.33 111.06)">咸阳</text><text class="cls-5" transform="translate(135.59 103.11)">洛阳</text><text class="cls-5" transform="translate(152.09 118.34)">阳翟</text><text class="cls-5" transform="translate(161.24 108.24)">大梁(开封)</text><text class="cls-5" transform="translate(162.04 77.88)">邯郸</text><text class="cls-5" transform="translate(175.01 44.61)">蓟 jì</text><text class="cls-5" transform="translate(205.66 76.89)">临淄</text><text class="cls-5" transform="translate(183.01 144.84)">寿春</text><text class="cls-5" transform="translate(130.88 163.84)">郢 yǐng</text><text class="cls-5" transform="translate(81.38 109.21)">雍</text><text class="cls-6" transform="translate(92.33 98.95)">秦</text><text class="cls-6" transform="translate(167.2 144.43)">楚</text><text class="cls-6" transform="translate(186.58 81.76)">齐</text><text class="cls-6" transform="translate(134.91 93.47)">魏</text><text class="cls-6" transform="translate(158.1 68.79)">赵</text><text class="cls-6" transform="translate(183.7 41.06)">燕</text><text class="cls-6" transform="translate(130.88 122.66)">韩</text><rect class="cls-7" x="0.21" y="0.21" width="277.98" height="214.15"/><path class="cls-2" d="M582.22,26.3l-3.05,2.5H573.9l-5,4.43-3.6,2.5L562,39.33v2h-3.05l1.73,1.59L560.25,44l-2.71-.93v2.7h-3.95l-.52,2.81-2-2.18.94-1.36-.94-.31,2.6-1V42.14h2.81l-.21-1.45-1-1,2.29-1.77-3,.1-.32-1.56.73-1.35-2.81,1-1-1.14,3-1.46-.83-1.14,1.25-2h1.35l1.87-1.14,1-3.95,1.87-3.85-1.45-1.77L556.4,17l.1-4.06h-1.87l-1.87,3.54L550,16.15l-2.18,3.22,1.56.83-4.27,1.46-1.56,5.2-2.08,2.6-6.75,3.43h-.94V35l-2.81,2,.83,1.36-.83,3.43v1.35l-4,1.14-2.4-.52-.62.83-4.47-.2-2.91.52v5.09l-1.77,1.87V57l2.81,1.77h1.35l2.08,1.46h1.35l2.5,2.91h2.91l1.77,4.16,3.84,2,2,1.15,2.6-.63,2.91.11.62-1.77-1-1.15,2-.72,2.29-3.12.93-1.56,4.47-1.15,3.12-.62,1.77,2.7,1.67.32.31-1,1.66,2.59,6.14-1.55.1-1.25,1.35,1.66,3.75.83,1.87-1.35-1.46,2.91-.73,2.29,1.67.31-.83,2.19-3.12,1.76v-2.7l-1.15.73-2.39-1.35.42,2.18-2.6.52.62,2h-1.14L559.73,71l-1.15,2.6L556,75H553.8l-1.15,3.22L551.51,81l1,1.67-4.09,1.66v-3h-1.21s.21,1.36-.11,1.36-2.18.1-2.18.1l2.39,3.12h1.11l-2.36,2.81L545,87.06,544,92h-3l-1.35,6.34-2.08,3.33,5.2,4.68,5,3.12,1.87,1.66h3.22l2.39,4.35-.52,3,3,2.39s-.21,2.29-.21,2.81,1.25,2,1.25,2l.42,3,2.49,2.7h4.47l1.25,2.29.83,5.61-3.64,1.46-3.33-1.56-4.67-.63,2.6,2.19,3.84,1.56,2.5,2.18L565,153.3,562.84,159l-.72,1.87-4.37-1-3.33,1,4.79.94,3.74,3.53L566.9,164l1.56-1.14,7.59,2.49h3.64l-5.41,4.27h3l-.31,5,1.14.93-3.74,2,.1-2.29-3.22.94-.31,1.35h1.56l3,1.25-.62,2.28-2.39,2.4,2.59,2.18v2.91l-2.8,2.18-.52-2.39-2-1.14-2,2.6,2.28.93L568,194.06l.42,2.71-4.26.72.2,1.15,2.29,1.14.63,3.43-2.92.83-.52,1.67-1.56,1.77v.79"/><polyline class="cls-3" points="376.75 188.52 381.46 184.91 384.79 188.52 386.18 186.71 386.18 184.91 387.56 183.25 390.89 183.25 394.22 180.75 394.22 177.43 399.21 177.43 401.15 174.93 401.15 177.7 405.03 174.93 405.03 172.99 408.36 172.99 416.12 165.78 416.12 163.01 427.49 160.51 431.1 160.51 433.32 158.85 440.53 160.23 449.68 161.06 451.62 163.56 453.84 166.89 458.27 168.83 462.99 169.11 462.99 173.68 461.6 177.15 471.03 175.48 469.36 179.64 471.03 179.92 471.03 182.97 476.85 173.68 482.4 170.49 480.18 166.06 484.34 168.83 487.11 163.01 493.76 166.61 499.03 173.68 505.13 172.43 507.35 174.93 513.17 172.16 515.95 166.89 517.06 163.56 522.05 161.06 523.43 156.63 526.76 153.85 531.75 151.64 533.14 148.03 533.14 144.43 535.64 144.43 537.3 136.66 544.23 136.66 550.05 136.66 552 139.71 556.61 138.53"/><polyline class="cls-3" points="335.13 84.81 345.69 85.92 348.74 89.52 356.79 89.52 359 92.3 361.5 85.92 367.6 88.55 372.31 83.42 376.75 80.93 374.25 76.21 369.82 75.11 371.76 72.89 378.41 70.95 382.85 66.79 388.12 66.79 393.94 60.13 400.32 48.21 402.26 39.06 399.21 33.51 406.14 28.24 406.14 22.7 415.29 21.03 419.45 25.75 425 28.8 433.87 29.63 441.91 28.8 449.4 35.45 449.4 38.78 448.01 42.66 444.69 45.16 441.63 58.47 441.63 65.95 439.42 69.28 440.53 74.27 437.2 78.71 438.58 88.69 441.63 96.46 438.31 99.51 435.54 108.66 439.69 110.6 456.05 104.22 466.68 105.61 472.41 105.05 485.17 94.79 496.81 89.25 500.42 80.65 510.68 73.16 521.77 71.78 527.7 63.15"/><path class="cls-3" d="M374.25,102l5.27,4.16s20,3.32,20,4.44,5.27,4.83,5.27,4.83H415l4.15,2.93,8.6-6.38,6.93-1.38.83-1.94"/><polyline class="cls-3" points="388.95 138.88 395.88 134.44 396.99 130.84 401.7 130.84 404.89 134.86 410.3 133.34 418.62 132.23 423.06 138.88 426.94 138.88 429.71 134.86 435.54 136.66 441.08 134.86 450.51 134.86 454.94 138.88 456.05 144.71 460.48 147.75 460.48 150.53 464.1 151.91 464.1 156.35 467.98 158.01 465.48 159.4 467.98 162.59 467.98 164.67 467.98 166.33 472.14 163.84 477.68 166.33 480.45 162.59 486.16 165.01"/><polyline class="cls-3" points="469.09 118.36 478.24 122.24 486.16 122.24 494.6 125.57 499.87 130.84 506.52 134.17 512.9 136.66 512.9 133.61 517.06 133.61 517.06 129.18 522.6 129.18 524.82 125.29 529.26 127.51 533.97 121.69 535.91 118.36 539.52 118.36 545.06 113.65 546.55 108.66"/><polygon class="cls-4" points="460.48 180.89 462.15 183.39 460.48 186.16 459.71 186.71 460.48 188.52 462.85 189.63 463.96 186.99 465.34 187.68 466.68 189.63 469.92 189.63 469.09 186.3 470.47 185.26 471.03 182.97 469.09 181.44 466.68 179.78 466.68 182.55 465.37 182.28 463.4 182.14 462.71 180.61 460.48 180.89"/><path class="cls-4" d="M552.83,144.43s-2.36,3.46-2.36,4.16a21.93,21.93,0,0,0,1.18,3.6l1.18,1.25,3.78,1,2.6-1,1-3.05-1.11-1.8-2.46,2.21v-1.38l-1.29-.83v-1.53l1.29-.55-2-1.39Z"/><circle class="cls-2" cx="402.19" cy="129.38" r="1.46"/><circle class="cls-2" cx="391.38" cy="169.24" r="1.46"/><circle class="cls-2" cx="363.06" cy="164.05" r="1.46"/><circle class="cls-2" cx="422.22" cy="113.97" r="1.46"/><circle class="cls-2" cx="462.92" cy="108.66" r="1.46"/><circle class="cls-2" cx="473.3" cy="116.88" r="1.46"/><circle class="cls-2" cx="482.22" cy="107.2" r="1.46"/><circle class="cls-2" cx="510.7" cy="139" r="1.46"/><circle class="cls-2" cx="460.48" cy="167.79" r="1.46"/><circle class="cls-2" cx="483.67" cy="76.89" r="1.46"/><circle class="cls-2" cx="501.6" cy="37.53" r="1.46"/><circle class="cls-2" cx="526.24" cy="75.43" r="1.46"/><circle class="cls-2" cx="406.96" cy="112.52" r="1.46"/><text class="cls-5" transform="translate(398.66 126.13)">南郑</text><text class="cls-5" transform="translate(389.92 166.33)">巴</text><text class="cls-5" transform="translate(361.6 160.72)">蜀</text><text class="cls-5" transform="translate(419.45 111.06)">咸阳</text><text class="cls-5" transform="translate(459.71 103.11)">洛阳</text><text class="cls-5" transform="translate(476.2 118.34)">阳翟</text><text class="cls-5" transform="translate(485.35 108.24)">大梁(开封)</text><text class="cls-5" transform="translate(486.16 77.88)">邯郸</text><text class="cls-5" transform="translate(499.13 44.61)">蓟 jì</text><text class="cls-5" transform="translate(529.77 76.89)">临淄</text><text class="cls-5" transform="translate(507.13 144.84)">寿春</text><text class="cls-5" transform="translate(455 163.84)">郢 yǐng</text><text class="cls-5" transform="translate(405.5 109.21)">雍</text><text class="cls-6" transform="translate(416.45 98.95)">秦</text><text class="cls-6" transform="translate(491.32 144.43)">楚</text><text class="cls-6" transform="translate(510.7 81.76)">齐</text><text class="cls-6" transform="translate(459.02 93.47)">魏</text><text class="cls-6" transform="translate(482.22 68.79)">赵</text><text class="cls-6" transform="translate(507.82 41.06)">燕</text><text class="cls-6" transform="translate(455 122.66)">韩</text><rect class="cls-7" x="324.33" y="0.21" width="277.98" height="214.15"/><path class="cls-2" d="M258.1,274l-3.05,2.5h-5.27l-5,4.44-3.6,2.49-3.33,3.61V289h-3.05l1.73,1.59-.41,1.15-2.71-.94v2.7h-3.95l-.52,2.81-2-2.18.93-1.35-.93-.32,2.6-1v-1.56h2.8l-.2-1.45-1-1,2.28-1.77-3,.1-.31-1.56.72-1.35-2.8,1-1-1.14,3-1.46-.83-1.14,1.25-2h1.35l1.87-1.14,1-4,1.87-3.85-1.45-1.77-2.81-2.7.1-4.06h-1.87l-1.87,3.54-2.81-.31-2.18,3.22,1.56.83-4.27,1.46-1.55,5.2-2.08,2.6-6.76,3.43h-.94v2.08l-2.81,2,.84,1.36-.84,3.43v1.35L202.75,292l-2.39-.52-.63.84-4.47-.21-2.91.52v5.09l-1.77,1.87v5.2l2.81,1.77h1.35l2.08,1.46h1.35l2.5,2.91h2.91l1.77,4.16,3.84,2,2,1.15,2.6-.63,2.91.11.63-1.77-1-1.14,2-.73,2.29-3.12.93-1.56,4.48-1.15,3.12-.62,1.76,2.7,1.67.32.31-1,1.66,2.6,6.14-1.56.1-1.25,1.35,1.66,3.75.83,1.87-1.35-1.46,2.91-.73,2.29,1.67.31-.83,2.19-3.12,1.76v-2.7l-1.15.73-2.39-1.35.42,2.18-2.6.52.62,2H237l-1.35-2.6-1.15,2.6-2.6,1.45h-2.18L228.54,326l-1.15,2.8,1,1.67-4.09,1.66v-3h-1.21s.21,1.35-.11,1.35-2.18.1-2.18.1l2.39,3.12h1.11L222,336.46l-1.14-1.67-.93,4.89h-3L215.54,346l-2.08,3.33,5.2,4.68,5,3.12,1.87,1.66h3.22l2.4,4.35-.52,3,3,2.39s-.21,2.29-.21,2.81,1.25,2,1.25,2l.42,3,2.49,2.7h4.47l1.25,2.29.83,5.61-3.64,1.46-3.32-1.56-4.68-.62,2.6,2.18,3.84,1.56,2.5,2.18-.52,8.84-2.18,5.72-.73,1.87-4.37-1-3.33,1,4.79.94,3.74,3.53,3.95-1.35,1.56-1.14,7.59,2.49h3.64l-5.41,4.27h3l-.31,5,1.14.93-3.74,2,.1-2.29-3.22.94-.31,1.35h1.56l3,1.25-.62,2.29-2.39,2.39,2.6,2.18v2.91l-2.81,2.19-.52-2.4-2-1.14-2,2.6,2.28.94-2.07,3.32.41,2.71-4.26.72.21,1.15,2.28,1.14.63,3.43-2.91.84-.52,1.66-1.56,1.77V456"/><polyline class="cls-3" points="52.63 436.25 57.34 432.64 60.67 436.25 62.06 434.44 62.06 432.64 63.45 430.98 66.77 430.98 70.1 428.48 70.1 425.16 75.09 425.16 77.03 422.66 77.03 425.43 80.91 422.66 80.91 420.72 84.24 420.72 92.01 413.51 92.01 410.74 103.38 408.24 106.98 408.24 109.2 406.58 116.41 407.96 125.56 408.8 127.5 411.29 129.72 414.62 134.15 416.56 138.87 416.84 138.87 421.41 137.48 424.88 146.91 423.21 145.25 427.37 146.91 427.65 146.91 430.7 152.73 421.41 158.28 418.22 156.06 413.79 160.22 416.56 162.99 410.74 169.65 414.34 174.91 421.41 181.01 420.17 183.23 422.66 189.06 419.89 191.83 414.62 192.94 411.29 197.93 408.8 199.32 404.36 202.64 401.59 207.63 399.37 209.02 395.76 209.02 392.16 211.52 392.16 213.18 384.39 220.11 384.39 225.94 384.39 227.88 387.44 232.49 386.27"/><polyline class="cls-3" points="11.02 332.54 21.57 333.65 24.63 337.25 32.67 337.25 34.88 340.03 37.38 333.65 43.48 336.29 48.19 331.15 52.63 328.66 50.13 323.94 45.7 322.84 47.64 320.62 54.3 318.68 58.73 314.52 64 314.52 69.82 307.86 76.2 295.94 78.14 286.79 75.09 281.24 82.02 275.97 82.02 270.43 91.17 268.76 95.33 273.48 100.88 276.53 109.75 277.36 117.79 276.53 125.28 283.18 125.28 286.51 123.89 290.39 120.57 292.89 117.52 306.2 117.52 313.69 115.3 317.01 116.41 322 113.08 326.44 114.47 336.42 117.52 344.19 114.19 347.24 111.42 356.39 115.58 358.33 131.94 351.95 142.56 353.34 148.29 352.78 161.05 342.52 172.7 336.98 176.3 328.38 186.56 320.89 197.65 319.51 203.58 310.88"/><path class="cls-3" d="M50.14,349.73l5.26,4.16s20,3.33,20,4.44,5.27,4.83,5.27,4.83H90.9l4.16,2.93,8.59-6.37,6.93-1.39.84-1.94"/><polyline class="cls-3" points="64.83 386.61 71.76 382.18 72.87 378.57 77.59 378.57 80.78 382.59 86.18 381.07 94.5 379.96 98.94 386.61 102.82 386.61 105.59 382.59 111.42 384.39 116.96 382.59 126.39 382.59 130.83 386.61 131.94 392.44 136.36 395.49 136.36 398.26 139.98 399.64 139.98 404.08 143.86 405.75 141.36 407.13 143.86 410.32 143.86 412.4 143.86 414.06 148.02 411.57 153.56 414.06 156.34 410.32 162.04 412.74"/><polyline class="cls-3" points="144.97 366.09 154.12 369.98 162.04 369.98 170.48 373.3 175.75 378.57 182.4 381.9 188.78 384.39 188.78 381.34 192.94 381.34 192.94 376.91 198.49 376.91 200.7 373.02 205.14 375.24 209.85 369.42 211.79 366.09 215.4 366.09 220.94 361.38 222.43 356.39"/><polygon class="cls-4" points="136.36 428.62 138.04 431.12 136.36 433.89 135.59 434.44 136.36 436.25 138.73 437.36 139.84 434.72 141.22 435.42 142.56 437.36 145.8 437.36 144.97 434.03 146.35 432.99 146.91 430.7 144.97 429.18 142.56 427.51 142.56 430.29 141.25 430.01 139.28 429.87 138.59 428.35 136.36 428.62"/><path class="cls-4" d="M228.71,392.16s-2.36,3.46-2.36,4.16a21.93,21.93,0,0,0,1.18,3.6l1.18,1.25,3.78,1,2.6-1,1-3.05-1.11-1.8-2.46,2.22v-1.39l-1.29-.83v-1.53l1.29-.55-2-1.39Z"/><circle class="cls-2" cx="78.07" cy="377.12" r="1.46"/><circle class="cls-2" cx="67.26" cy="416.98" r="1.46"/><circle class="cls-2" cx="38.94" cy="411.78" r="1.46"/><circle class="cls-2" cx="98.11" cy="361.7" r="1.46"/><circle class="cls-2" cx="138.8" cy="356.39" r="1.46"/><circle class="cls-2" cx="149.18" cy="364.61" r="1.46"/><circle class="cls-2" cx="158.1" cy="354.94" r="1.46"/><circle class="cls-2" cx="186.58" cy="386.73" r="1.46"/><circle class="cls-2" cx="136.36" cy="415.52" r="1.46"/><circle class="cls-2" cx="159.56" cy="324.62" r="1.46"/><circle class="cls-2" cx="177.48" cy="285.26" r="1.46"/><circle class="cls-2" cx="202.12" cy="323.16" r="1.46"/><circle class="cls-2" cx="82.84" cy="360.25" r="1.46"/><text class="cls-5" transform="translate(74.54 373.86)">南郑</text><text class="cls-5" transform="translate(65.8 414.06)">巴</text><text class="cls-5" transform="translate(37.48 408.45)">蜀</text><text class="cls-5" transform="translate(95.33 358.79)">咸阳</text><text class="cls-5" transform="translate(135.59 350.84)">洛阳</text><text class="cls-5" transform="translate(152.09 366.07)">阳翟</text><text class="cls-5" transform="translate(161.24 355.98)">大梁(开封)</text><text class="cls-5" transform="translate(162.04 325.61)">邯郸</text><text class="cls-5" transform="translate(175.01 292.34)">蓟 jì</text><text class="cls-5" transform="translate(205.66 324.62)">临淄</text><text class="cls-5" transform="translate(183.01 392.57)">寿春</text><text class="cls-5" transform="translate(130.88 411.57)">郢 yǐng</text><text class="cls-5" transform="translate(81.38 356.94)">雍</text><text class="cls-6" transform="translate(92.33 346.68)">秦</text><text class="cls-6" transform="translate(167.2 392.16)">楚</text><text class="cls-6" transform="translate(186.58 329.49)">齐</text><text class="cls-6" transform="translate(134.91 341.2)">魏</text><text class="cls-6" transform="translate(158.1 316.52)">赵</text><text class="cls-6" transform="translate(183.7 288.79)">燕</text><text class="cls-6" transform="translate(130.88 370.39)">韩</text><rect class="cls-7" x="0.21" y="247.94" width="277.98" height="214.15"/><path class="cls-2" d="M582.22,274l-3.05,2.5H573.9l-5,4.44-3.6,2.49L562,287.07V289h-3.05l1.73,1.59-.41,1.15-2.71-.94v2.7h-3.95l-.52,2.81-2-2.18.94-1.35-.94-.32,2.6-1v-1.56h2.81l-.21-1.45-1-1,2.29-1.77-3,.1-.32-1.56.73-1.35-2.81,1-1-1.14,3-1.46-.83-1.14,1.25-2h1.35l1.87-1.14,1-4,1.87-3.85-1.45-1.77-2.81-2.7.1-4.06h-1.87l-1.87,3.54-2.81-.31-2.18,3.22,1.56.83-4.27,1.46-1.56,5.2-2.08,2.6-6.75,3.43h-.94v2.08l-2.81,2,.83,1.36-.83,3.43v1.35l-4,1.14-2.4-.52-.62.84-4.47-.21-2.91.52v5.09l-1.77,1.87v5.2l2.81,1.77h1.35l2.08,1.46h1.35l2.5,2.91h2.91l1.77,4.16,3.84,2,2,1.15,2.6-.63,2.91.11.62-1.77-1-1.14,2-.73,2.29-3.12.93-1.56,4.47-1.15,3.12-.62,1.77,2.7,1.67.32.31-1,1.66,2.6,6.14-1.56.1-1.25,1.35,1.66,3.75.83,1.87-1.35-1.46,2.91-.73,2.29,1.67.31-.83,2.19-3.12,1.76v-2.7l-1.15.73-2.39-1.35.42,2.18-2.6.52.62,2h-1.14l-1.35-2.6-1.15,2.6-2.6,1.45H553.8L552.65,326l-1.14,2.8,1,1.67-4.09,1.66v-3h-1.21s.21,1.35-.11,1.35-2.18.1-2.18.1l2.39,3.12h1.11l-2.36,2.81L545,334.79l-.94,4.89h-3L539.66,346l-2.08,3.33,5.2,4.68,5,3.12,1.87,1.66h3.22l2.39,4.35-.52,3,3,2.39s-.21,2.29-.21,2.81,1.25,2,1.25,2l.42,3,2.49,2.7h4.47l1.25,2.29.83,5.61-3.64,1.46-3.33-1.56-4.67-.62,2.6,2.18,3.84,1.56,2.5,2.18L565,401l-2.19,5.72-.72,1.87-4.37-1-3.33,1,4.79.94,3.74,3.53,3.95-1.35,1.56-1.14,7.59,2.49h3.64l-5.41,4.27h3l-.31,5,1.14.93-3.74,2,.1-2.29-3.22.94-.31,1.35h1.56l3,1.25-.62,2.29-2.39,2.39,2.59,2.18v2.91l-2.8,2.19-.52-2.4-2-1.14-2,2.6,2.28.94L568,441.79l.42,2.71-4.26.72.2,1.15,2.29,1.14.63,3.43-2.92.84-.52,1.66-1.56,1.77V456"/><polyline class="cls-3" points="376.75 436.25 381.46 432.64 384.79 436.25 386.18 434.44 386.18 432.64 387.56 430.98 390.89 430.98 394.22 428.48 394.22 425.16 399.21 425.16 401.15 422.66 401.15 425.43 405.03 422.66 405.03 420.72 408.36 420.72 416.12 413.51 416.12 410.74 427.49 408.24 431.1 408.24 433.32 406.58 440.53 407.96 449.68 408.8 451.62 411.29 453.84 414.62 458.27 416.56 462.99 416.84 462.99 421.41 461.6 424.88 471.03 423.21 469.36 427.37 471.03 427.65 471.03 430.7 476.85 421.41 482.4 418.22 480.18 413.79 484.34 416.56 487.11 410.74 493.76 414.34 499.03 421.41 505.13 420.17 507.35 422.66 513.17 419.89 515.95 414.62 517.06 411.29 522.05 408.8 523.43 404.36 526.76 401.59 531.75 399.37 533.14 395.76 533.14 392.16 535.64 392.16 537.3 384.39 544.23 384.39 550.05 384.39 552 387.44 556.61 386.27"/><polyline class="cls-3" points="335.13 332.54 345.69 333.65 348.74 337.25 356.79 337.25 359 340.03 361.5 333.65 367.6 336.29 372.31 331.15 376.75 328.66 374.25 323.94 369.82 322.84 371.76 320.62 378.41 318.68 382.85 314.52 388.12 314.52 393.94 307.86 400.32 295.94 402.26 286.79 399.21 281.24 406.14 275.97 406.14 270.43 415.29 268.76 419.45 273.48 425 276.53 433.87 277.36 441.91 276.53 449.4 283.18 449.4 286.51 448.01 290.39 444.69 292.89 441.63 306.2 441.63 313.69 439.42 317.01 440.53 322 437.2 326.44 438.58 336.42 441.63 344.19 438.31 347.24 435.54 356.39 439.69 358.33 456.05 351.95 466.68 353.34 472.41 352.78 485.17 342.52 496.81 336.98 500.42 328.38 510.68 320.89 521.77 319.51 527.7 310.88"/><path class="cls-3" d="M374.25,349.73l5.27,4.16s20,3.33,20,4.44,5.27,4.83,5.27,4.83H415l4.15,2.93,8.6-6.37,6.93-1.39.83-1.94"/><polyline class="cls-3" points="388.95 386.61 395.88 382.18 396.99 378.57 401.7 378.57 404.89 382.59 410.3 381.07 418.62 379.96 423.06 386.61 426.94 386.61 429.71 382.59 435.54 384.39 441.08 382.59 450.51 382.59 454.94 386.61 456.05 392.44 460.48 395.49 460.48 398.26 464.1 399.64 464.1 404.08 467.98 405.75 465.48 407.13 467.98 410.32 467.98 412.4 467.98 414.06 472.14 411.57 477.68 414.06 480.45 410.32 486.16 412.74"/><polyline class="cls-3" points="469.09 366.09 478.24 369.98 486.16 369.98 494.6 373.3 499.87 378.57 506.52 381.9 512.9 384.39 512.9 381.34 517.06 381.34 517.06 376.91 522.6 376.91 524.82 373.02 529.26 375.24 533.97 369.42 535.91 366.09 539.52 366.09 545.06 361.38 546.55 356.39"/><polygon class="cls-4" points="460.48 428.62 462.15 431.12 460.48 433.89 459.71 434.44 460.48 436.25 462.85 437.36 463.96 434.72 465.34 435.42 466.68 437.36 469.92 437.36 469.09 434.03 470.47 432.99 471.03 430.7 469.09 429.18 466.68 427.51 466.68 430.29 465.37 430.01 463.4 429.87 462.71 428.35 460.48 428.62"/><path class="cls-4" d="M552.83,392.16s-2.36,3.46-2.36,4.16a21.93,21.93,0,0,0,1.18,3.6l1.18,1.25,3.78,1,2.6-1,1-3.05-1.11-1.8-2.46,2.22v-1.39l-1.29-.83v-1.53l1.29-.55-2-1.39Z"/><circle class="cls-2" cx="402.19" cy="377.12" r="1.46"/><circle class="cls-2" cx="391.38" cy="416.98" r="1.46"/><circle class="cls-2" cx="363.06" cy="411.78" r="1.46"/><circle class="cls-2" cx="422.22" cy="361.7" r="1.46"/><circle class="cls-2" cx="462.92" cy="356.39" r="1.46"/><circle class="cls-2" cx="473.3" cy="364.61" r="1.46"/><circle class="cls-2" cx="482.22" cy="354.94" r="1.46"/><circle class="cls-2" cx="510.7" cy="386.73" r="1.46"/><circle class="cls-2" cx="460.48" cy="415.52" r="1.46"/><circle class="cls-2" cx="483.67" cy="324.62" r="1.46"/><circle class="cls-2" cx="501.6" cy="285.26" r="1.46"/><circle class="cls-2" cx="526.24" cy="323.16" r="1.46"/><circle class="cls-2" cx="406.96" cy="360.25" r="1.46"/><text class="cls-5" transform="translate(398.66 373.86)">南郑</text><text class="cls-5" transform="translate(389.92 414.06)">巴</text><text class="cls-5" transform="translate(361.6 408.45)">蜀</text><text class="cls-5" transform="translate(419.45 358.79)">咸阳</text><text class="cls-5" transform="translate(459.71 350.84)">洛阳</text><text class="cls-5" transform="translate(476.2 366.07)">阳翟</text><text class="cls-5" transform="translate(485.35 355.98)">大梁(开封)</text><text class="cls-5" transform="translate(486.16 325.61)">邯郸</text><text class="cls-5" transform="translate(499.13 292.34)">蓟 jì</text><text class="cls-5" transform="translate(529.77 324.62)">临淄</text><text class="cls-5" transform="translate(507.13 392.57)">寿春</text><text class="cls-5" transform="translate(455 411.57)">郢 yǐng</text><text class="cls-5" transform="translate(405.5 356.94)">雍</text><text class="cls-6" transform="translate(416.45 346.68)">秦</text><text class="cls-6" transform="translate(491.32 392.16)">楚</text><text class="cls-6" transform="translate(510.7 329.49)">齐</text><text class="cls-6" transform="translate(459.02 341.2)">魏</text><text class="cls-6" transform="translate(482.22 316.52)">赵</text><text class="cls-6" transform="translate(507.82 288.79)">燕</text><text class="cls-6" transform="translate(455 370.39)">韩</text><rect class="cls-7" x="324.33" y="247.94" width="277.98" height="214.15"/></g><g id="图层_2-2" data-name="图层 2"><rect class="cls-8" x="129.99" y="74.47" width="23.66" height="7.74" rx="3.17"/><text class="cls-9" transform="translate(134.95 79.72)">公孙衍</text><rect class="cls-10" x="86.27" y="79.81" width="23.66" height="7.74" rx="3.17"/><text class="cls-9" transform="translate(88.95 85.06)">秦惠文王</text><text class="cls-11" transform="translate(130.88 12.92)">第一次合纵<tspan x="0" y="10.12">前318年</tspan></text><rect class="cls-8" x="505.52" y="86.44" width="23.66" height="7.74" rx="3.17"/><text class="cls-9" transform="translate(510.48 91.69)">孟尝君</text><rect class="cls-10" x="410.39" y="79.81" width="23.66" height="7.74" rx="3.17"/><text class="cls-9" transform="translate(413.07 85.06)">秦昭襄王</text><text class="cls-11" transform="translate(455 12.92)">第二次合纵<tspan x="0" y="10.12">前298年</tspan></text><text class="cls-12" transform="translate(284.68 99.95)">距前一次<tspan x="0" y="10.12">20年</tspan></text><text class="cls-12" transform="translate(278.19 227.07)">距前一次<tspan x="0" y="10.12">51年</tspan></text><rect class="cls-8" x="129.99" y="322.2" width="23.66" height="7.74" rx="3.17"/><text class="cls-9" transform="translate(134.95 327.45)">信陵君</text><rect class="cls-10" x="86.27" y="327.54" width="23.66" height="7.74" rx="3.17"/><text class="cls-9" transform="translate(88.95 332.8)">秦庄襄王</text><text class="cls-11" transform="translate(130.88 260.65)">第三次合纵<tspan x="0" y="10.12">前247年</tspan></text><rect class="cls-8" x="477.93" y="298.31" width="23.66" height="7.74" rx="3.17"/><text class="cls-9" transform="translate(485.19 303.56)">庞媛</text><rect class="cls-10" x="410.39" y="327.54" width="23.66" height="7.74" rx="3.17"/><text class="cls-9" transform="translate(415.35 332.8)">秦始皇</text><text class="cls-11" transform="translate(455 260.65)">第四次合纵<tspan x="0" y="10.12">前241年</tspan></text><line class="cls-13" x1="278.19" y1="116.88" x2="317.27" y2="116.88"/><polygon class="cls-8" points="324.33 116.88 314.38 120.95 316.74 116.88 314.38 112.82 324.33 116.88"/><text class="cls-12" transform="translate(284.68 348.48)">距前一次<tspan x="0" y="10.12">6年</tspan></text><line class="cls-13" x1="278.19" y1="365.41" x2="317.27" y2="365.41"/><polygon class="cls-8" points="324.33 365.41 314.38 369.47 316.74 365.41 314.38 361.34 324.33 365.41"/><line class="cls-13" x1="323.64" y1="221.69" x2="289.67" y2="255.66"/><polygon class="cls-8" points="284.68 260.65 288.84 250.74 290.04 255.29 294.59 256.49 284.68 260.65"/></g></g></svg>